HIERARCHY
ROOT reference
{
  OFFSET 0 0 0
  CHANNELS 6 Xposition Yposition Zposition Zrotation Xrotation Yrotation
  JOINT Hips
  {
    OFFSET 368.823 89.7904 194.012
    CHANNELS 3 Zrotation Xrotation Yrotation
    JOINT RightUpLeg
    {
      OFFSET -9.24587 -1.53924 -0.0496539
      CHANNELS 3 Zrotation Xrotation Yrotation
      JOINT RightLeg
      {
        OFFSET 0.0288962 -41.8853 0.065208
        CHANNELS 3 Zrotation Xrotation Yrotation
        JOINT RightFoot
        {
          OFFSET -0.153961 -42.496 -0.469978
          CHANNELS 3 Zrotation Xrotation Yrotation
          End Site
          {
            OFFSET 0 -7.69 17.5
          }
        }
      }
    }
    JOINT LeftUpLeg
    {
      OFFSET 9.30368 -1.65799 0.0114032
      CHANNELS 3 Zrotation Xrotation Yrotation
      JOINT LeftLeg
      {
        OFFSET 0.0812002 -41.8405 -0.136291
        CHANNELS 3 Zrotation Xrotation Yrotation
        JOINT LeftFoot
        {
          OFFSET 0.408244 -41.1613 0.400562
          CHANNELS 3 Zrotation Xrotation Yrotation
          End Site
          {
            OFFSET 0 -7.69 17.5
          }
        }
      }
    }
    JOINT Spine
    {
      OFFSET 0.0091145 14.2923 0.0603898
      CHANNELS 3 Zrotation Xrotation Yrotation
      JOINT Spine1
      {
        OFFSET 0.0313032 9.72692 0.0269052
        CHANNELS 3 Zrotation Xrotation Yrotation
        JOINT Spine2
        {
          OFFSET 0.0416827 10.1254 -0.000588186
          CHANNELS 3 Zrotation Xrotation Yrotation
          JOINT Spine3
          {
            OFFSET 0.0353017 9.71596 0.00525809
            CHANNELS 3 Zrotation Xrotation Yrotation
            JOINT Neck
            {
              OFFSET 0.0870676 10.3793 0.0454457
              CHANNELS 3 Zrotation Xrotation Yrotation
              JOINT Head
              {
                OFFSET 0.0878806 9.48152 0.0233162
                CHANNELS 3 Zrotation Xrotation Yrotation
                End Site
                {
                  OFFSET 0 15.95 0
                }
              }
            }
            JOINT RightShoulder
            {
              OFFSET -3.16008 6.92912 0.0289115
              CHANNELS 3 Zrotation Xrotation Yrotation
              JOINT RightArm
              {
                OFFSET -12.7589 0.0216905 0.0632467
                CHANNELS 3 Zrotation Xrotation Yrotation
                JOINT RightForeArm
                {
                  OFFSET -26.506 -0.0577999 0.0567862
                  CHANNELS 3 Zrotation Xrotation Yrotation
                  JOINT RightHand
                  {
                    OFFSET -25.9836 -0.0526551 -0.00138994
                    CHANNELS 3 Zrotation Xrotation Yrotation
                    JOINT RightHandThumb1
                    {
                      OFFSET -2.48905 0.190105 3.12053
                      CHANNELS 3 Zrotation Xrotation Yrotation
                      JOINT RightHandThumb2
                      {
                        OFFSET -3.68274 0 0
                        CHANNELS 3 Zrotation Xrotation Yrotation
                        JOINT RightHandThumb3
                        {
                          OFFSET -2.55832 0 0
                          CHANNELS 3 Zrotation Xrotation Yrotation
                          End Site
                          {
                            OFFSET -2.194 0 0
                          }
                        }
                      }
                    }
                    JOINT RightInHandIndex
                    {
                      OFFSET -3.22368 0.508421 1.97842
                      CHANNELS 3 Zrotation Xrotation Yrotation
                      JOINT RightHandIndex1
                      {
                        OFFSET -5.21684 -0.091368 0.999158
                        CHANNELS 3 Zrotation Xrotation Yrotation
                        JOINT RightHandIndex2
                        {
                          OFFSET -3.61937 0 0
                          CHANNELS 3 Zrotation Xrotation Yrotation
                          JOINT RightHandIndex3
                          {
                            OFFSET -2.0521 0 0
                            CHANNELS 3 Zrotation Xrotation Yrotation
                            End Site
                            {
                              OFFSET -1.805 0 0
                            }
                          }
                        }
                      }
                    }
                    JOINT RightInHandMiddle
                    {
                      OFFSET -3.38211 0.517263 0.756737
                      CHANNELS 3 Zrotation Xrotation Yrotation
                      JOINT RightHandMiddle1
                      {
                        OFFSET -5.17411 -0.084 0.313895
                        CHANNELS 3 Zrotation Xrotation Yrotation
                        JOINT RightHandMiddle2
                        {
                          OFFSET -3.94947 0 0
                          CHANNELS 3 Zrotation Xrotation Yrotation
                          JOINT RightHandMiddle3
                          {
                            OFFSET -2.47579 0 0
                            CHANNELS 3 Zrotation Xrotation Yrotation
                            End Site
                            {
                              OFFSET -1.975 0 0
                            }
                          }
                        }
                      }
                    }
                    JOINT RightInHandRing
                    {
                      OFFSET -3.36516 0.537895 -0.128947
                      CHANNELS 3 Zrotation Xrotation Yrotation
                      JOINT RightHandRing1
                      {
                        OFFSET -4.63474 -0.022105 -0.478947
                        CHANNELS 3 Zrotation Xrotation Yrotation
                        JOINT RightHandRing2
                        {
                          OFFSET -3.44238 0 0
                          CHANNELS 3 Zrotation Xrotation Yrotation
                          JOINT RightHandRing3
                          {
                            OFFSET -2.3881 0 0
                            CHANNELS 3 Zrotation Xrotation Yrotation
                            End Site
                            {
                              OFFSET -1.857 0 0
                            }
                          }
                        }
                      }
                    }
                    JOINT RightInHandPinky
                    {
                      OFFSET -3.16105 0.469368 -1.20179
                      CHANNELS 3 Zrotation Xrotation Yrotation
                      JOINT RightHandPinky1
                      {
                        OFFSET -4.14105 -0.022105 -1.09053
                        CHANNELS 3 Zrotation Xrotation Yrotation
                        JOINT RightHandPinky2
                        {
                          OFFSET -2.75653 0 0
                          CHANNELS 3 Zrotation Xrotation Yrotation
                          JOINT RightHandPinky3
                          {
                            OFFSET -1.74189 0 0
                            CHANNELS 3 Zrotation Xrotation Yrotation
                            End Site
                            {
                              OFFSET -1.645 0 0
                            }
                          }
                        }
                      }
                    }
                  }
                }
              }
            }
            JOINT LeftShoulder
            {
              OFFSET 3.24363 6.91883 -0.0263005
              CHANNELS 3 Zrotation Xrotation Yrotation
              JOINT LeftArm
              {
                OFFSET 12.8387 -0.0254922 -0.065819
                CHANNELS 3 Zrotation Xrotation Yrotation
                JOINT LeftForeArm
                {
                  OFFSET 26.503 -0.0679028 -0.0690065
                  CHANNELS 3 Zrotation Xrotation Yrotation
                  JOINT LeftHand
                  {
                    OFFSET 25.9897 -0.0384179 -0.0536179
                    CHANNELS 3 Zrotation Xrotation Yrotation
                    JOINT LeftHandThumb1
                    {
                      OFFSET 2.48905 0.190105 3.12053
                      CHANNELS 3 Zrotation Xrotation Yrotation
                      JOINT LeftHandThumb2
                      {
                        OFFSET 3.68274 0 0
                        CHANNELS 3 Zrotation Xrotation Yrotation
                        JOINT LeftHandThumb3
                        {
                          OFFSET 2.55832 0 0
                          CHANNELS 3 Zrotation Xrotation Yrotation
                          End Site
                          {
                            OFFSET 2.194 0 0
                          }
                        }
                      }
                    }
                    JOINT LeftInHandIndex
                    {
                      OFFSET 3.22368 0.508421 1.97842
                      CHANNELS 3 Zrotation Xrotation Yrotation
                      JOINT LeftHandIndex1
                      {
                        OFFSET 5.21684 -0.091368 0.999158
                        CHANNELS 3 Zrotation Xrotation Yrotation
                        JOINT LeftHandIndex2
                        {
                          OFFSET 3.61937 0 0
                          CHANNELS 3 Zrotation Xrotation Yrotation
                          JOINT LeftHandIndex3
                          {
                            OFFSET 2.0521 0 0
                            CHANNELS 3 Zrotation Xrotation Yrotation
                            End Site
                            {
                              OFFSET 1.805 0 0
                            }
                          }
                        }
                      }
                    }
                    JOINT LeftInHandMiddle
                    {
                      OFFSET 3.38211 0.517263 0.756737
                      CHANNELS 3 Zrotation Xrotation Yrotation
                      JOINT LeftHandMiddle1
                      {
                        OFFSET 5.17411 -0.084 0.313895
                        CHANNELS 3 Zrotation Xrotation Yrotation
                        JOINT LeftHandMiddle2
                        {
                          OFFSET 3.94947 0 0
                          CHANNELS 3 Zrotation Xrotation Yrotation
                          JOINT LeftHandMiddle3
                          {
                            OFFSET 2.47579 0 0
                            CHANNELS 3 Zrotation Xrotation Yrotation
                            End Site
                            {
                              OFFSET 1.975 0 0
                            }
                          }
                        }
                      }
                    }
                    JOINT LeftInHandRing
                    {
                      OFFSET 3.36516 0.537895 -0.128947
                      CHANNELS 3 Zrotation Xrotation Yrotation
                      JOINT LeftHandRing1
                      {
                        OFFSET 4.63474 -0.022105 -0.478947
                        CHANNELS 3 Zrotation Xrotation Yrotation
                        JOINT LeftHandRing2
                        {
                          OFFSET 3.44238 0 0
                          CHANNELS 3 Zrotation Xrotation Yrotation
                          JOINT LeftHandRing3
                          {
                            OFFSET 2.3881 0 0
                            CHANNELS 3 Zrotation Xrotation Yrotation
                            End Site
                            {
                              OFFSET 1.857 0 0
                            }
                          }
                        }
                      }
                    }
                    JOINT LeftInHandPinky
                    {
                      OFFSET 3.16105 0.469368 -1.20179
                      CHANNELS 3 Zrotation Xrotation Yrotation
                      JOINT LeftHandPinky1
                      {
                        OFFSET 4.14105 -0.022105 -1.09053
                        CHANNELS 3 Zrotation Xrotation Yrotation
                        JOINT LeftHandPinky2
                        {
                          OFFSET 2.75653 0 0
                          CHANNELS 3 Zrotation Xrotation Yrotation
                          JOINT LeftHandPinky3
                          {
                            OFFSET 1.74189 0 0
                            CHANNELS 3 Zrotation Xrotation Yrotation
                            End Site
                            {
                              OFFSET 1.645 0 0
                            }
                          }
                        }
                      }
                    }
                  }
                }
              }
            }
          }
        }
      }
    }
  }
}
MOTION
Frames: 2
Frame Time: 0.00833333
4.500000000000000000e+02 0.000000000000000000e+00 0.000000000000000000e+00 0.000000000000000000e+00 0.000000000000000000e+00 0.000000000000000000e+00 -1.123930175242461582e-02 6.131281925669025516e-03 2.720898691048833154e-02 -4.045387019640492993e-02 -1.207598784219390646e-02 -6.403505760580294193e-02 -9.715224456937522493e-04 -1.211821954582705495e-02 -4.580947512216892309e-02 5.432495047160698816e-03 2.431435871482637637e-02 6.447615395375318192e-02 -5.937618798509795154e-03 -1.274502910397249875e-02 1.913654935605069163e-02 3.324541564988627018e-02 -1.346563239080727017e-02 -4.500465116873866855e-02 2.005708064687448250e-03 7.230564823155268862e-03 -3.336525095487561450e-04 -9.630026920541113686e-03 2.234105390536493541e-02 4.219703995647478001e-02 -1.958479868309114229e-03 5.531069000526802996e-03 1.004539598887864774e-02 -3.268109632666558410e-03 8.518986857032555260e-03 1.679774271850151962e-02 1.569524728870645193e-04 1.333237979515021964e-03 -1.770231548812684682e-03 7.782392797218110059e-03 1.780564730274667579e-02 -6.633532285592382005e-02 -1.337311278966135880e-03 -1.574223468835171669e-02 5.294047389104251065e-03 -2.317654069457714822e-02 -2.758102392632354183e-02 6.002948459155113548e-02 1.130007803650558279e-01 3.870779720816334285e-02 1.861558417833143395e-02 -1.570975827269838199e-01 1.040524954480976372e-01 -1.953197471214146719e-01 -9.937106170064760602e-02 -6.334797932850530500e-02 -5.254385584750489654e-03 0.000000000000000000e+00 0.000000000000000000e+00 0.000000000000000000e+00 -7.842377085011594162e-17 4.928320649546340317e-18 0.000000000000000000e+00 -1.629745924467594669e-15 -1.768915819944410225e-16 0.000000000000000000e+00 1.171539521108304547e-16 2.838603636118850743e-16 -5.600904517379603784e-16 0.000000000000000000e+00 0.000000000000000000e+00 0.000000000000000000e+00 0.000000000000000000e+00 1.524807199252101025e-15 7.982967638413796415e-16 0.000000000000000000e+00 -8.669973176924204083e-16 -3.705347178017027784e-16 1.171539521108304547e-16 2.838603636118850743e-16 -5.600904517379603784e-16 0.000000000000000000e+00 -5.783637934810998019e-16 7.350554769917208040e-17 0.000000000000000000e+00 -1.753030304431961136e-16 3.431733770014105587e-15 0.000000000000000000e+00 1.703600525761161058e-15 -2.077536355509361666e-15 1.171539521108304547e-16 2.838603636118850743e-16 -5.600904517379603784e-16 0.000000000000000000e+00 0.000000000000000000e+00 0.000000000000000000e+00 0.000000000000000000e+00 1.518030569495212673e-15 5.516483564821010030e-15 0.000000000000000000e+00 1.166869801968301836e-15 -7.247674331080235260e-16 1.171539521108304547e-16 2.838603636118850743e-16 -5.600904517379603784e-16 0.000000000000000000e+00 0.000000000000000000e+00 0.000000000000000000e+00 0.000000000000000000e+00 8.306697751297133971e-17 1.724556588402280748e-16 0.000000000000000000e+00 5.946635898458277145e-16 -1.111199204699830869e-15 -3.568673329890506563e-02 8.848909995714789034e-02 2.282016820101092358e-01 3.484845375271732326e-01 1.015603473294227482e-01 -3.426905220434283694e-01 -3.341656158224263345e-02 -1.065133380928773854e-01 3.140356961652761986e-02 -4.831155519378672880e-02 7.342491150739798023e-02 6.192666788735036801e-04 0.000000000000000000e+00 0.000000000000000000e+00 0.000000000000000000e+00 1.596069144763836961e-16 -4.281397141800028961e-16 0.000000000000000000e+00 -1.964184082718823264e-15 -7.206169768857507097e-16 0.000000000000000000e+00 4.424911194077593851e-16 -1.329280780778701446e-16 -8.186721334745233714e-17 0.000000000000000000e+00 0.000000000000000000e+00 0.000000000000000000e+00 0.000000000000000000e+00 -5.875081816395042998e-16 2.044285750658777653e-15 0.000000000000000000e+00 -6.684629372581455836e-16 2.629599327408738452e-16 4.424911194077593851e-16 -1.329280780778701446e-16 -8.186721334745233714e-17 0.000000000000000000e+00 -1.190604156548870111e-15 1.385657467960313927e-15 0.000000000000000000e+00 -5.797993393130445359e-16 2.124278358262636583e-15 0.000000000000000000e+00 2.804225753774867152e-16 2.715827213973902888e-15 4.424911194077593851e-16 -1.329280780778701446e-16 -8.186721334745233714e-17 0.000000000000000000e+00 0.000000000000000000e+00 0.000000000000000000e+00 0.000000000000000000e+00 -8.993357916932949667e-16 3.223570890094375252e-15 0.000000000000000000e+00 -1.410669892827198573e-16 3.610840329959033722e-15 4.424911194077593851e-16 -1.329280780778701446e-16 -8.186721334745233714e-17 0.000000000000000000e+00 0.000000000000000000e+00 0.000000000000000000e+00 0.000000000000000000e+00 -8.346217058073095320e-16 3.580759991228295313e-15 0.000000000000000000e+00 -1.703232373390444532e-16 5.469991192937416812e-16
4.500000000000000000e+02 0.000000000000000000e+00 0.000000000000000000e+00 0.000000000000000000e+00 0.000000000000000000e+00 0.000000000000000000e+00 -9.709707465978266103e-03 4.978573494050063256e-04 4.610555691892156971e-03 -1.960696981153642326e-02 -1.399592471516990233e-03 -2.659043393696021787e-02 -3.506127067520030307e-03 -2.007744574207161181e-02 -5.977050101815257338e-02 3.568360504947643182e-03 3.147513362143235932e-02 7.238027021985195264e-02 1.584943365761615208e-02 -1.011261011926504983e-03 7.709217314162994383e-02 4.046989309413383945e-02 -8.817783896281756323e-03 -7.776971419786114781e-02 1.971994964618321009e-04 6.707857079945175709e-03 -4.045628699722803902e-03 -4.627117013646492825e-03 9.521127645278218768e-03 1.381906987227804300e-02 -1.018957868420918532e-03 2.291271187963985628e-03 3.183138309182118562e-03 -1.689683989275685659e-03 3.560559087272738548e-03 5.403692597524361457e-03 -3.077400003579955118e-04 4.802701932256584903e-04 5.040266035884308389e-04 3.571741495276090344e-03 8.859011444121978746e-03 -3.022411236515741215e-02 -7.585715205194575560e-03 -2.910463819005056334e-03 2.790117680319349758e-02 -3.307103238241585613e-02 -9.683918348793492045e-03 9.300543699570588962e-02 7.369162139185950200e-02 -2.557420504123044530e-02 1.090222416817753469e-02 -1.228703237627586931e-01 7.501770565907647792e-02 -8.524933835237699653e-02 -6.281665441891474966e-02 -8.863651637098457492e-02 -2.859756744911982201e-02 0.000000000000000000e+00 0.000000000000000000e+00 0.000000000000000000e+00 2.801276947332437750e-16 -5.151632211331880262e-16 0.000000000000000000e+00 -8.138954678123522361e-16 -7.518164207985252508e-16 0.000000000000000000e+00 -8.233769801554108065e-17 4.110424603176088804e-16 -2.466187623188937354e-16 0.000000000000000000e+00 0.000000000000000000e+00 0.000000000000000000e+00 0.000000000000000000e+00 9.234160482275380598e-16 2.221758146004520858e-15 0.000000000000000000e+00 -6.857676558580696710e-16 5.244894771736270077e-16 -8.233769801554108065e-17 4.110424603176088804e-16 -2.466187623188937354e-16 0.000000000000000000e+00 -4.333035340343230619e-17 -4.708744639370626677e-16 0.000000000000000000e+00 6.672754392195269547e-16 4.275142119903280819e-15 0.000000000000000000e+00 6.663385976600039204e-16 -7.652826400558279830e-16 -8.233769801554108065e-17 4.110424603176088804e-16 -2.466187623188937354e-16 0.000000000000000000e+00 0.000000000000000000e+00 0.000000000000000000e+00 0.000000000000000000e+00 1.156381977056055220e-15 5.183436060962984982e-15 0.000000000000000000e+00 5.561623443045330480e-16 3.031052270871160992e-16 -8.233769801554108065e-17 4.110424603176088804e-16 -2.466187623188937354e-16 0.000000000000000000e+00 0.000000000000000000e+00 0.000000000000000000e+00 0.000000000000000000e+00 9.315747499852796602e-16 5.427975164506515026e-15 0.000000000000000000e+00 1.671274188936096748e-16 -6.184156446058396277e-16 -3.088114583101186222e-02 5.699393962475905739e-02 1.521580059633126925e-01 2.212429380831458237e-01 6.123568838542470943e-02 -2.088690936704261369e-01 -2.066331527429413756e-02 -8.409981456669819722e-02 1.034177989762772448e-02 -4.776290475498099625e-02 6.421664172035486395e-02 -2.079214902132155152e-02 0.000000000000000000e+00 0.000000000000000000e+00 0.000000000000000000e+00 2.822684442215505139e-16 -1.931813918071625338e-16 0.000000000000000000e+00 -5.595450783241618287e-16 -2.147179725452436988e-16 0.000000000000000000e+00 1.190522877465900197e-16 -1.394604751876118214e-16 5.961672402303870602e-17 0.000000000000000000e+00 0.000000000000000000e+00 0.000000000000000000e+00 0.000000000000000000e+00 -5.458996585590464736e-16 2.094907985240896351e-15 0.000000000000000000e+00 -4.278749184349164221e-16 6.958348914697230208e-16 1.190522877465900197e-16 -1.394604751876118214e-16 5.961672402303870602e-17 0.000000000000000000e+00 -6.635427102286648777e-16 1.127460892178548273e-15 0.000000000000000000e+00 -2.584818057140046435e-16 1.657873240568185218e-15 0.000000000000000000e+00 3.702785261064429868e-16 2.199884629303380322e-15 1.190522877465900197e-16 -1.394604751876118214e-16 5.961672402303870602e-17 0.000000000000000000e+00 0.000000000000000000e+00 0.000000000000000000e+00 0.000000000000000000e+00 -8.674376492489512485e-16 1.928815120184651969e-15 0.000000000000000000e+00 -3.897898608931375143e-16 2.780493469764371302e-15 1.190522877465900197e-16 -1.394604751876118214e-16 5.961672402303870602e-17 0.000000000000000000e+00 0.000000000000000000e+00 0.000000000000000000e+00 0.000000000000000000e+00 -5.957780407196001480e-16 2.830341141549764924e-15 0.000000000000000000e+00 -8.854298743250656182e-17 7.841671578795190085e-16
